<mxfile host="app.diagrams.net" agent="Mozilla/5.0 (X11; Linux x86_64; rv:134.0) Gecko/20100101 Firefox/134.0" version="26.0.13" pages="2">
  <diagram name="Page-1" id="-FLrAZMlSt8un2dKXL5w">
    <mxGraphModel dx="835" dy="574" grid="1" gridSize="10" guides="1" tooltips="1" connect="1" arrows="1" fold="1" page="1" pageScale="1" pageWidth="850" pageHeight="1100" math="0" shadow="0">
      <root>
        <mxCell id="0" />
        <mxCell id="1" parent="0" />
        <mxCell id="W7bd2qUVRePxg1-YOgWJ-9" style="edgeStyle=orthogonalEdgeStyle;rounded=0;orthogonalLoop=1;jettySize=auto;html=1;exitX=0.5;exitY=1;exitDx=0;exitDy=0;entryX=0.5;entryY=0;entryDx=0;entryDy=0;startArrow=classic;startFill=1;" edge="1" parent="1" source="W7bd2qUVRePxg1-YOgWJ-1" target="W7bd2qUVRePxg1-YOgWJ-2">
          <mxGeometry relative="1" as="geometry" />
        </mxCell>
        <mxCell id="W7bd2qUVRePxg1-YOgWJ-1" value="&lt;h1&gt;&lt;font face=&quot;Courier New&quot;&gt;&lt;b&gt;glyph-client&lt;/b&gt;&lt;/font&gt;&lt;/h1&gt;" style="rounded=0;whiteSpace=wrap;html=1;" vertex="1" parent="1">
          <mxGeometry x="360" y="580" width="230" height="60" as="geometry" />
        </mxCell>
        <mxCell id="W7bd2qUVRePxg1-YOgWJ-2" value="&lt;h1&gt;&lt;font face=&quot;Courier New&quot;&gt;&lt;b&gt;glyph-server&lt;/b&gt;&lt;/font&gt;&lt;/h1&gt;" style="rounded=0;whiteSpace=wrap;html=1;" vertex="1" parent="1">
          <mxGeometry x="360" y="800" width="230" height="60" as="geometry" />
        </mxCell>
        <mxCell id="W7bd2qUVRePxg1-YOgWJ-5" style="edgeStyle=orthogonalEdgeStyle;rounded=0;orthogonalLoop=1;jettySize=auto;html=1;exitX=0.5;exitY=1;exitDx=0;exitDy=0;entryX=0.25;entryY=0;entryDx=0;entryDy=0;" edge="1" parent="1" source="W7bd2qUVRePxg1-YOgWJ-3" target="W7bd2qUVRePxg1-YOgWJ-1">
          <mxGeometry relative="1" as="geometry" />
        </mxCell>
        <mxCell id="W7bd2qUVRePxg1-YOgWJ-3" value="&lt;h2&gt;&lt;font face=&quot;Courier New&quot;&gt;file loader&lt;br&gt;&lt;/font&gt;&lt;/h2&gt;" style="rhombus;whiteSpace=wrap;html=1;" vertex="1" parent="1">
          <mxGeometry x="280" y="420" width="120" height="120" as="geometry" />
        </mxCell>
        <mxCell id="W7bd2qUVRePxg1-YOgWJ-6" style="edgeStyle=orthogonalEdgeStyle;rounded=0;orthogonalLoop=1;jettySize=auto;html=1;exitX=0.5;exitY=1;exitDx=0;exitDy=0;entryX=0.75;entryY=0;entryDx=0;entryDy=0;" edge="1" parent="1" source="W7bd2qUVRePxg1-YOgWJ-4" target="W7bd2qUVRePxg1-YOgWJ-1">
          <mxGeometry relative="1" as="geometry" />
        </mxCell>
        <mxCell id="W7bd2qUVRePxg1-YOgWJ-4" value="&lt;h2&gt;&lt;font face=&quot;Courier New&quot;&gt;net handler&lt;br&gt;&lt;/font&gt;&lt;/h2&gt;" style="rhombus;whiteSpace=wrap;html=1;" vertex="1" parent="1">
          <mxGeometry x="560" y="420" width="120" height="120" as="geometry" />
        </mxCell>
        <mxCell id="W7bd2qUVRePxg1-YOgWJ-7" value="&lt;h2&gt;&lt;font face=&quot;Courier New&quot;&gt;message bus&lt;br&gt;&lt;/font&gt;&lt;/h2&gt;" style="rhombus;whiteSpace=wrap;html=1;" vertex="1" parent="1">
          <mxGeometry x="420" y="420" width="120" height="120" as="geometry" />
        </mxCell>
        <mxCell id="W7bd2qUVRePxg1-YOgWJ-8" style="edgeStyle=orthogonalEdgeStyle;rounded=0;orthogonalLoop=1;jettySize=auto;html=1;exitX=0.5;exitY=1;exitDx=0;exitDy=0;entryX=0.523;entryY=0.012;entryDx=0;entryDy=0;entryPerimeter=0;" edge="1" parent="1" source="W7bd2qUVRePxg1-YOgWJ-7" target="W7bd2qUVRePxg1-YOgWJ-1">
          <mxGeometry relative="1" as="geometry" />
        </mxCell>
        <mxCell id="W7bd2qUVRePxg1-YOgWJ-11" style="edgeStyle=orthogonalEdgeStyle;rounded=0;orthogonalLoop=1;jettySize=auto;html=1;exitX=0.5;exitY=0;exitDx=0;exitDy=0;entryX=0.25;entryY=1;entryDx=0;entryDy=0;" edge="1" parent="1" source="W7bd2qUVRePxg1-YOgWJ-10" target="W7bd2qUVRePxg1-YOgWJ-2">
          <mxGeometry relative="1" as="geometry" />
        </mxCell>
        <mxCell id="W7bd2qUVRePxg1-YOgWJ-10" value="&lt;h2&gt;&lt;font face=&quot;Courier New&quot;&gt;net handler&lt;br&gt;&lt;/font&gt;&lt;/h2&gt;" style="rhombus;whiteSpace=wrap;html=1;" vertex="1" parent="1">
          <mxGeometry x="280" y="920" width="120" height="120" as="geometry" />
        </mxCell>
        <mxCell id="W7bd2qUVRePxg1-YOgWJ-13" style="edgeStyle=orthogonalEdgeStyle;rounded=0;orthogonalLoop=1;jettySize=auto;html=1;exitX=0.5;exitY=0;exitDx=0;exitDy=0;entryX=0.5;entryY=1;entryDx=0;entryDy=0;" edge="1" parent="1" source="W7bd2qUVRePxg1-YOgWJ-12" target="W7bd2qUVRePxg1-YOgWJ-2">
          <mxGeometry relative="1" as="geometry" />
        </mxCell>
        <mxCell id="W7bd2qUVRePxg1-YOgWJ-12" value="&lt;h2&gt;&lt;font face=&quot;Courier New&quot;&gt;message bus&lt;br&gt;&lt;/font&gt;&lt;/h2&gt;" style="rhombus;whiteSpace=wrap;html=1;" vertex="1" parent="1">
          <mxGeometry x="415" y="920" width="120" height="120" as="geometry" />
        </mxCell>
      </root>
    </mxGraphModel>
  </diagram>
  <diagram id="jgMxbENvsLHy517YvmT1" name="Glyphic Architecture">
    <mxGraphModel dx="2060" dy="831" grid="1" gridSize="10" guides="1" tooltips="1" connect="1" arrows="1" fold="1" page="1" pageScale="1" pageWidth="850" pageHeight="1100" math="0" shadow="0">
      <root>
        <mxCell id="0" />
        <mxCell id="1" parent="0" />
        <mxCell id="NJIvl9b5mjo63YT-7Px1-7" value="&lt;h2&gt;&lt;font face=&quot;Courier New&quot;&gt;&lt;br&gt;&lt;/font&gt;&lt;/h2&gt;" style="rhombus;whiteSpace=wrap;html=1;" parent="1" vertex="1">
          <mxGeometry x="80" y="720" width="120" height="120" as="geometry" />
        </mxCell>
        <mxCell id="pyT-qH913ZQq-UkWncqq-5" style="edgeStyle=orthogonalEdgeStyle;rounded=0;orthogonalLoop=1;jettySize=auto;html=1;exitX=1;exitY=0.5;exitDx=0;exitDy=0;entryX=0.5;entryY=1;entryDx=0;entryDy=0;endArrow=none;startFill=0;dashed=1;fillColor=#d5e8d4;strokeColor=#82b366;" parent="1" source="NJIvl9b5mjo63YT-7Px1-17" target="NJIvl9b5mjo63YT-7Px1-7" edge="1">
          <mxGeometry relative="1" as="geometry" />
        </mxCell>
        <mxCell id="NJIvl9b5mjo63YT-7Px1-17" value="" style="triangle;whiteSpace=wrap;html=1;rotation=-90;" parent="1" vertex="1">
          <mxGeometry x="110" y="870" width="60" height="80" as="geometry" />
        </mxCell>
        <mxCell id="pyT-qH913ZQq-UkWncqq-1" value="" style="group" parent="1" vertex="1" connectable="0">
          <mxGeometry x="175" y="850" width="265" height="60" as="geometry" />
        </mxCell>
        <mxCell id="NJIvl9b5mjo63YT-7Px1-18" value="&lt;h1 align=&quot;left&quot;&gt;&lt;font&gt;&lt;span style=&quot;font-weight: normal;&quot;&gt;glyphic shard&lt;/span&gt;&lt;br&gt;&lt;/font&gt;&lt;/h1&gt;" style="text;html=1;align=left;verticalAlign=middle;whiteSpace=wrap;rounded=0;fontFamily=Courier New;" parent="pyT-qH913ZQq-UkWncqq-1" vertex="1">
          <mxGeometry x="65" width="200" height="30" as="geometry" />
        </mxCell>
        <mxCell id="NJIvl9b5mjo63YT-7Px1-21" value="" style="endArrow=none;html=1;strokeWidth=1;rounded=0;entryX=0.5;entryY=1;entryDx=0;entryDy=0;" parent="pyT-qH913ZQq-UkWncqq-1" target="NJIvl9b5mjo63YT-7Px1-18" edge="1">
          <mxGeometry width="50" height="50" relative="1" as="geometry">
            <mxPoint y="60" as="sourcePoint" />
            <mxPoint x="250" y="30" as="targetPoint" />
            <Array as="points">
              <mxPoint x="30" y="30" />
            </Array>
          </mxGeometry>
        </mxCell>
        <mxCell id="pyT-qH913ZQq-UkWncqq-2" value="" style="group" parent="1" vertex="1" connectable="0">
          <mxGeometry x="180" y="680" width="265" height="85" as="geometry" />
        </mxCell>
        <mxCell id="pyT-qH913ZQq-UkWncqq-3" value="&lt;h1 align=&quot;left&quot;&gt;&lt;font&gt;&lt;span style=&quot;font-weight: normal;&quot;&gt;glyphic core&lt;/span&gt;&lt;br&gt;&lt;/font&gt;&lt;/h1&gt;" style="text;html=1;align=left;verticalAlign=middle;whiteSpace=wrap;rounded=0;fontFamily=Courier New;" parent="pyT-qH913ZQq-UkWncqq-2" vertex="1">
          <mxGeometry x="65" width="200" height="30" as="geometry" />
        </mxCell>
        <mxCell id="pyT-qH913ZQq-UkWncqq-4" value="" style="endArrow=none;html=1;strokeWidth=1;rounded=0;entryX=0.5;entryY=1;entryDx=0;entryDy=0;" parent="pyT-qH913ZQq-UkWncqq-2" target="pyT-qH913ZQq-UkWncqq-3" edge="1">
          <mxGeometry width="50" height="50" relative="1" as="geometry">
            <mxPoint y="60" as="sourcePoint" />
            <mxPoint x="250" y="30" as="targetPoint" />
            <Array as="points">
              <mxPoint x="30" y="30" />
            </Array>
          </mxGeometry>
        </mxCell>
        <mxCell id="pyT-qH913ZQq-UkWncqq-10" value="" style="group;fontStyle=0" parent="1" vertex="1" connectable="0">
          <mxGeometry x="-510" y="780" width="270" height="60" as="geometry" />
        </mxCell>
        <mxCell id="pyT-qH913ZQq-UkWncqq-8" value="" style="endArrow=none;html=1;strokeWidth=1;rounded=0;entryX=0.5;entryY=1;entryDx=0;entryDy=0;" parent="pyT-qH913ZQq-UkWncqq-10" target="pyT-qH913ZQq-UkWncqq-9" edge="1">
          <mxGeometry width="50" height="50" relative="1" as="geometry">
            <mxPoint x="270" y="60" as="sourcePoint" />
            <mxPoint x="105" y="30" as="targetPoint" />
            <Array as="points">
              <mxPoint x="240" y="30" />
            </Array>
          </mxGeometry>
        </mxCell>
        <mxCell id="pyT-qH913ZQq-UkWncqq-9" value="&lt;div align=&quot;right&quot;&gt;left callout&lt;br&gt;&lt;/div&gt;" style="text;html=1;align=right;verticalAlign=middle;whiteSpace=wrap;rounded=0;fontFamily=Courier New;fontSize=24;fontStyle=0" parent="pyT-qH913ZQq-UkWncqq-10" vertex="1">
          <mxGeometry width="200" height="30" as="geometry" />
        </mxCell>
        <mxCell id="pyT-qH913ZQq-UkWncqq-13" value="" style="group" parent="1" vertex="1" connectable="0">
          <mxGeometry x="150" y="800" width="265" height="60" as="geometry" />
        </mxCell>
        <mxCell id="pyT-qH913ZQq-UkWncqq-14" value="&lt;h1 align=&quot;left&quot;&gt;&lt;font&gt;&lt;span style=&quot;font-weight: normal;&quot;&gt;comms channel&lt;/span&gt;&lt;br&gt;&lt;/font&gt;&lt;/h1&gt;" style="text;html=1;align=left;verticalAlign=middle;whiteSpace=wrap;rounded=0;fontFamily=Courier New;" parent="pyT-qH913ZQq-UkWncqq-13" vertex="1">
          <mxGeometry x="90" width="200" height="30" as="geometry" />
        </mxCell>
        <mxCell id="pyT-qH913ZQq-UkWncqq-15" value="" style="endArrow=none;html=1;strokeWidth=1;rounded=0;entryX=0.5;entryY=1;entryDx=0;entryDy=0;" parent="pyT-qH913ZQq-UkWncqq-13" target="pyT-qH913ZQq-UkWncqq-14" edge="1">
          <mxGeometry width="50" height="50" relative="1" as="geometry">
            <mxPoint y="60" as="sourcePoint" />
            <mxPoint x="250" y="30" as="targetPoint" />
            <Array as="points">
              <mxPoint x="30" y="30" />
            </Array>
          </mxGeometry>
        </mxCell>
        <mxCell id="pyT-qH913ZQq-UkWncqq-17" value="" style="group" parent="1" vertex="1" connectable="0">
          <mxGeometry x="-557" y="850" width="265" height="85" as="geometry" />
        </mxCell>
        <mxCell id="pyT-qH913ZQq-UkWncqq-18" value="&lt;h1 align=&quot;left&quot;&gt;&lt;font face=&quot;Courier New&quot;&gt;&lt;span style=&quot;font-weight: normal;&quot;&gt;right callout&lt;/span&gt;&lt;br&gt;&lt;/font&gt;&lt;/h1&gt;" style="text;html=1;align=left;verticalAlign=middle;whiteSpace=wrap;rounded=0;fontStyle=0" parent="pyT-qH913ZQq-UkWncqq-17" vertex="1">
          <mxGeometry x="65" width="200" height="30" as="geometry" />
        </mxCell>
        <mxCell id="pyT-qH913ZQq-UkWncqq-19" value="" style="endArrow=none;html=1;strokeWidth=1;rounded=0;entryX=0.5;entryY=1;entryDx=0;entryDy=0;" parent="pyT-qH913ZQq-UkWncqq-17" target="pyT-qH913ZQq-UkWncqq-18" edge="1">
          <mxGeometry width="50" height="50" relative="1" as="geometry">
            <mxPoint y="60" as="sourcePoint" />
            <mxPoint x="250" y="30" as="targetPoint" />
            <Array as="points">
              <mxPoint x="30" y="30" />
            </Array>
          </mxGeometry>
        </mxCell>
        <mxCell id="pyT-qH913ZQq-UkWncqq-11" style="edgeStyle=orthogonalEdgeStyle;rounded=0;orthogonalLoop=1;jettySize=auto;html=1;exitX=1;exitY=0.5;exitDx=0;exitDy=0;entryX=0;entryY=0.5;entryDx=0;entryDy=0;endArrow=none;startFill=0;dashed=1;fillColor=#d5e8d4;strokeColor=#82b366;" parent="1" source="pyT-qH913ZQq-UkWncqq-12" target="NJIvl9b5mjo63YT-7Px1-7" edge="1">
          <mxGeometry relative="1" as="geometry">
            <mxPoint x="80" y="780" as="targetPoint" />
          </mxGeometry>
        </mxCell>
        <mxCell id="pyT-qH913ZQq-UkWncqq-12" value="" style="triangle;whiteSpace=wrap;html=1;rotation=0;" parent="1" vertex="1">
          <mxGeometry x="-20" y="740" width="60" height="80" as="geometry" />
        </mxCell>
        <mxCell id="pyT-qH913ZQq-UkWncqq-25" value="" style="group" parent="1" vertex="1" connectable="0">
          <mxGeometry x="-270" y="620" width="319.49967508044045" height="108.63467508044039" as="geometry" />
        </mxCell>
        <mxCell id="pyT-qH913ZQq-UkWncqq-21" value="" style="shape=crossbar;whiteSpace=wrap;html=1;rounded=1;direction=south;rotation=45;" parent="pyT-qH913ZQq-UkWncqq-25" vertex="1">
          <mxGeometry x="260.43" y="0.16999999999995907" width="20" height="118.79" as="geometry" />
        </mxCell>
        <mxCell id="pyT-qH913ZQq-UkWncqq-22" value="" style="group;fontStyle=0" parent="pyT-qH913ZQq-UkWncqq-25" vertex="1" connectable="0">
          <mxGeometry width="270" height="60" as="geometry" />
        </mxCell>
        <mxCell id="pyT-qH913ZQq-UkWncqq-23" value="" style="endArrow=none;html=1;strokeWidth=1;rounded=0;entryX=0.5;entryY=1;entryDx=0;entryDy=0;" parent="pyT-qH913ZQq-UkWncqq-22" target="pyT-qH913ZQq-UkWncqq-24" edge="1">
          <mxGeometry width="50" height="50" relative="1" as="geometry">
            <mxPoint x="270" y="60" as="sourcePoint" />
            <mxPoint x="105" y="30" as="targetPoint" />
            <Array as="points">
              <mxPoint x="240" y="30" />
            </Array>
          </mxGeometry>
        </mxCell>
        <mxCell id="pyT-qH913ZQq-UkWncqq-24" value="&lt;div align=&quot;right&quot;&gt;glyph&lt;br&gt;&lt;/div&gt;" style="text;html=1;align=right;verticalAlign=middle;whiteSpace=wrap;rounded=0;fontFamily=Courier New;fontSize=24;fontStyle=0" parent="pyT-qH913ZQq-UkWncqq-22" vertex="1">
          <mxGeometry x="150" width="80" height="30" as="geometry" />
        </mxCell>
        <mxCell id="ihaaTIRmuxDENvVCG5u8-32" value="" style="group" vertex="1" connectable="0" parent="1">
          <mxGeometry x="-270" y="1110" width="319.49967508044045" height="108.63467508044039" as="geometry" />
        </mxCell>
        <mxCell id="ihaaTIRmuxDENvVCG5u8-33" value="" style="shape=crossbar;whiteSpace=wrap;html=1;rounded=1;direction=south;rotation=45;" vertex="1" parent="ihaaTIRmuxDENvVCG5u8-32">
          <mxGeometry x="260.43" y="0.16999999999995907" width="20" height="118.79" as="geometry" />
        </mxCell>
        <mxCell id="ihaaTIRmuxDENvVCG5u8-34" value="" style="group;fontStyle=0" vertex="1" connectable="0" parent="ihaaTIRmuxDENvVCG5u8-32">
          <mxGeometry width="270" height="60" as="geometry" />
        </mxCell>
        <mxCell id="ihaaTIRmuxDENvVCG5u8-35" value="" style="endArrow=none;html=1;strokeWidth=1;rounded=0;entryX=0.5;entryY=1;entryDx=0;entryDy=0;" edge="1" parent="ihaaTIRmuxDENvVCG5u8-34" target="ihaaTIRmuxDENvVCG5u8-36">
          <mxGeometry width="50" height="50" relative="1" as="geometry">
            <mxPoint x="270" y="60" as="sourcePoint" />
            <mxPoint x="105" y="30" as="targetPoint" />
            <Array as="points">
              <mxPoint x="240" y="30" />
            </Array>
          </mxGeometry>
        </mxCell>
        <mxCell id="ihaaTIRmuxDENvVCG5u8-36" value="&lt;div align=&quot;right&quot;&gt;glyph&lt;br&gt;&lt;/div&gt;" style="text;html=1;align=right;verticalAlign=middle;whiteSpace=wrap;rounded=0;fontFamily=Courier New;fontSize=24;fontStyle=0" vertex="1" parent="ihaaTIRmuxDENvVCG5u8-34">
          <mxGeometry x="150" width="80" height="30" as="geometry" />
        </mxCell>
        <mxCell id="ihaaTIRmuxDENvVCG5u8-37" value="" style="group" vertex="1" connectable="0" parent="1">
          <mxGeometry x="-120" y="1060" width="520" height="520" as="geometry" />
        </mxCell>
        <mxCell id="ihaaTIRmuxDENvVCG5u8-18" value="" style="group;rotation=-180;" vertex="1" connectable="0" parent="ihaaTIRmuxDENvVCG5u8-37">
          <mxGeometry x="300" width="220" height="220" as="geometry" />
        </mxCell>
        <mxCell id="ihaaTIRmuxDENvVCG5u8-13" value="&lt;h2&gt;&lt;font face=&quot;Courier New&quot;&gt;&lt;br&gt;&lt;/font&gt;&lt;/h2&gt;" style="rhombus;whiteSpace=wrap;html=1;rotation=-180;" vertex="1" parent="ihaaTIRmuxDENvVCG5u8-18">
          <mxGeometry y="100" width="120" height="120" as="geometry" />
        </mxCell>
        <mxCell id="ihaaTIRmuxDENvVCG5u8-14" style="edgeStyle=orthogonalEdgeStyle;rounded=0;orthogonalLoop=1;jettySize=auto;html=1;exitX=1;exitY=0.5;exitDx=0;exitDy=0;entryX=0.5;entryY=1;entryDx=0;entryDy=0;endArrow=none;startFill=0;dashed=1;fillColor=#d5e8d4;strokeColor=#82b366;" edge="1" parent="ihaaTIRmuxDENvVCG5u8-18" source="ihaaTIRmuxDENvVCG5u8-15" target="ihaaTIRmuxDENvVCG5u8-13">
          <mxGeometry relative="1" as="geometry" />
        </mxCell>
        <mxCell id="ihaaTIRmuxDENvVCG5u8-15" value="" style="triangle;whiteSpace=wrap;html=1;rotation=-270;" vertex="1" parent="ihaaTIRmuxDENvVCG5u8-18">
          <mxGeometry x="30" y="-10" width="60" height="80" as="geometry" />
        </mxCell>
        <mxCell id="ihaaTIRmuxDENvVCG5u8-19" value="" style="group" vertex="1" connectable="0" parent="ihaaTIRmuxDENvVCG5u8-37">
          <mxGeometry y="300" width="220" height="220" as="geometry" />
        </mxCell>
        <mxCell id="ihaaTIRmuxDENvVCG5u8-1" value="&lt;h2&gt;&lt;font face=&quot;Courier New&quot;&gt;&lt;br&gt;&lt;/font&gt;&lt;/h2&gt;" style="rhombus;whiteSpace=wrap;html=1;" vertex="1" parent="ihaaTIRmuxDENvVCG5u8-19">
          <mxGeometry x="100" width="120" height="120" as="geometry" />
        </mxCell>
        <mxCell id="ihaaTIRmuxDENvVCG5u8-2" style="edgeStyle=orthogonalEdgeStyle;rounded=0;orthogonalLoop=1;jettySize=auto;html=1;exitX=1;exitY=0.5;exitDx=0;exitDy=0;entryX=0.5;entryY=1;entryDx=0;entryDy=0;endArrow=none;startFill=0;dashed=1;fillColor=#d5e8d4;strokeColor=#82b366;" edge="1" parent="ihaaTIRmuxDENvVCG5u8-19" source="ihaaTIRmuxDENvVCG5u8-3" target="ihaaTIRmuxDENvVCG5u8-1">
          <mxGeometry relative="1" as="geometry" />
        </mxCell>
        <mxCell id="ihaaTIRmuxDENvVCG5u8-3" value="" style="triangle;whiteSpace=wrap;html=1;rotation=-90;" vertex="1" parent="ihaaTIRmuxDENvVCG5u8-19">
          <mxGeometry x="130" y="150" width="60" height="80" as="geometry" />
        </mxCell>
        <mxCell id="ihaaTIRmuxDENvVCG5u8-4" style="edgeStyle=orthogonalEdgeStyle;rounded=0;orthogonalLoop=1;jettySize=auto;html=1;exitX=1;exitY=0.5;exitDx=0;exitDy=0;entryX=0;entryY=0.5;entryDx=0;entryDy=0;endArrow=none;startFill=0;dashed=1;fillColor=#d5e8d4;strokeColor=#82b366;" edge="1" parent="ihaaTIRmuxDENvVCG5u8-19" source="ihaaTIRmuxDENvVCG5u8-5" target="ihaaTIRmuxDENvVCG5u8-1">
          <mxGeometry relative="1" as="geometry">
            <mxPoint x="100" y="60" as="targetPoint" />
          </mxGeometry>
        </mxCell>
        <mxCell id="ihaaTIRmuxDENvVCG5u8-5" value="" style="triangle;whiteSpace=wrap;html=1;rotation=0;" vertex="1" parent="ihaaTIRmuxDENvVCG5u8-19">
          <mxGeometry y="20" width="60" height="80" as="geometry" />
        </mxCell>
        <mxCell id="ihaaTIRmuxDENvVCG5u8-20" value="" style="group;rotation=-90;" vertex="1" connectable="0" parent="ihaaTIRmuxDENvVCG5u8-37">
          <mxGeometry x="300" y="300" width="220" height="220" as="geometry" />
        </mxCell>
        <mxCell id="ihaaTIRmuxDENvVCG5u8-21" value="&lt;h2&gt;&lt;font face=&quot;Courier New&quot;&gt;&lt;br&gt;&lt;/font&gt;&lt;/h2&gt;" style="rhombus;whiteSpace=wrap;html=1;rotation=-90;" vertex="1" parent="ihaaTIRmuxDENvVCG5u8-20">
          <mxGeometry width="120" height="120" as="geometry" />
        </mxCell>
        <mxCell id="ihaaTIRmuxDENvVCG5u8-22" style="edgeStyle=orthogonalEdgeStyle;rounded=0;orthogonalLoop=1;jettySize=auto;html=1;exitX=1;exitY=0.5;exitDx=0;exitDy=0;entryX=0.5;entryY=1;entryDx=0;entryDy=0;endArrow=none;startFill=0;dashed=1;fillColor=#d5e8d4;strokeColor=#82b366;" edge="1" parent="ihaaTIRmuxDENvVCG5u8-20" source="ihaaTIRmuxDENvVCG5u8-23" target="ihaaTIRmuxDENvVCG5u8-21">
          <mxGeometry relative="1" as="geometry" />
        </mxCell>
        <mxCell id="ihaaTIRmuxDENvVCG5u8-23" value="" style="triangle;whiteSpace=wrap;html=1;rotation=-180;" vertex="1" parent="ihaaTIRmuxDENvVCG5u8-20">
          <mxGeometry x="160" y="20" width="60" height="80" as="geometry" />
        </mxCell>
        <mxCell id="ihaaTIRmuxDENvVCG5u8-24" style="edgeStyle=orthogonalEdgeStyle;rounded=0;orthogonalLoop=1;jettySize=auto;html=1;exitX=1;exitY=0.5;exitDx=0;exitDy=0;entryX=0;entryY=0.5;entryDx=0;entryDy=0;endArrow=none;startFill=0;dashed=1;fillColor=#d5e8d4;strokeColor=#82b366;" edge="1" parent="ihaaTIRmuxDENvVCG5u8-20" source="ihaaTIRmuxDENvVCG5u8-25" target="ihaaTIRmuxDENvVCG5u8-21">
          <mxGeometry relative="1" as="geometry">
            <mxPoint x="60" y="120" as="targetPoint" />
          </mxGeometry>
        </mxCell>
        <mxCell id="ihaaTIRmuxDENvVCG5u8-25" value="" style="triangle;whiteSpace=wrap;html=1;rotation=-90;" vertex="1" parent="ihaaTIRmuxDENvVCG5u8-20">
          <mxGeometry x="30" y="150" width="60" height="80" as="geometry" />
        </mxCell>
        <mxCell id="ihaaTIRmuxDENvVCG5u8-28" style="rounded=0;orthogonalLoop=1;jettySize=auto;html=1;exitX=0;exitY=1;exitDx=0;exitDy=0;entryX=1;entryY=0;entryDx=0;entryDy=0;endArrow=none;startFill=0;dashed=1;fillColor=#d5e8d4;strokeColor=#82b366;" edge="1" parent="ihaaTIRmuxDENvVCG5u8-37" source="ihaaTIRmuxDENvVCG5u8-26" target="ihaaTIRmuxDENvVCG5u8-13">
          <mxGeometry relative="1" as="geometry" />
        </mxCell>
        <mxCell id="ihaaTIRmuxDENvVCG5u8-29" style="rounded=0;orthogonalLoop=1;jettySize=auto;html=1;exitX=0;exitY=0;exitDx=0;exitDy=0;entryX=1;entryY=0;entryDx=0;entryDy=0;endArrow=none;startFill=0;dashed=1;fillColor=#d5e8d4;strokeColor=#82b366;" edge="1" parent="ihaaTIRmuxDENvVCG5u8-37" source="ihaaTIRmuxDENvVCG5u8-26" target="ihaaTIRmuxDENvVCG5u8-21">
          <mxGeometry relative="1" as="geometry" />
        </mxCell>
        <mxCell id="ihaaTIRmuxDENvVCG5u8-30" style="rounded=0;orthogonalLoop=1;jettySize=auto;html=1;exitX=1;exitY=0;exitDx=0;exitDy=0;entryX=1;entryY=0;entryDx=0;entryDy=0;endArrow=none;startFill=0;dashed=1;fillColor=#d5e8d4;strokeColor=#82b366;" edge="1" parent="ihaaTIRmuxDENvVCG5u8-37" source="ihaaTIRmuxDENvVCG5u8-26" target="ihaaTIRmuxDENvVCG5u8-1">
          <mxGeometry relative="1" as="geometry" />
        </mxCell>
        <mxCell id="ihaaTIRmuxDENvVCG5u8-26" value="&lt;h2&gt;&lt;font face=&quot;Courier New&quot;&gt;&lt;br&gt;&lt;/font&gt;&lt;/h2&gt;" style="rhombus;whiteSpace=wrap;html=1;rotation=-180;" vertex="1" parent="ihaaTIRmuxDENvVCG5u8-37">
          <mxGeometry x="200" y="200" width="120" height="120" as="geometry" />
        </mxCell>
      </root>
    </mxGraphModel>
  </diagram>
</mxfile>
